PathFileType	4	(X/Y/Z)	Walk6.trc
DataRate	CameraRate	NumFrames	NumMarkers	Units	OrigDataRate	OrigDataStartFrame	OrigNumFrames
200.000000	200.000000	7	59	mm	200.000000	879	1038
Frame#	Times		LFHD		RFHD		RCAR		RWRU		LACR1		RACR1		RUA1		RTH2		LLFC		RFA1		LMT5		RASI		LTH3		LUA1		LElbow		LMT1		LTB4		RTH4		LToe		RBHD		RLFC		LTB3		LTH4		LTH2		STRN		CLAV		LASI		RTH3		LTH1		LWRU		C7		LFA1		RBack		RMT1		RTH1		LBHD		RMT5		RCAL		LPSI		LCAR		RToe		RTB2		RLMAL		RPSI		RTB3		LWRR		RTB4		RTB1		LTB1		LLMAL		RMMAL		RElbow		RWRR		RElbowM		T10		LTB2		LMMAL		LCAL		LElbowM
			X1	Y1	Z1	X2	Y2	Z2	X3	Y3	Z3	X4	Y4	Z4	X5	Y5	Z5	X6	Y6	Z6	X7	Y7	Z7	X8	Y8	Z8	X9	Y9	Z9	X10	Y10	Z10	X11	Y11	Z11	X12	Y12	Z12	X13	Y13	Z13	X14	Y14	Z14	X15	Y15	Z15	X16	Y16	Z16	X17	Y17	Z17	X18	Y18	Z18	X19	Y19	Z19	X20	Y20	Z20	X21	Y21	Z21	X22	Y22	Z22	X23	Y23	Z23	X24	Y24	Z24	X25	Y25	Z25	X26	Y26	Z26	X27	Y27	Z27	X28	Y28	Z28	X29	Y29	Z29	X30	Y30	Z30	X31	Y31	Z31	X32	Y32	Z32	X33	Y33	Z33	X34	Y34	Z34	X35	Y35	Z35	X36	Y36	Z36	X37	Y37	Z37	X38	Y38	Z38	X39	Y39	Z39	X40	Y40	Z40	X41	Y41	Z41	X42	Y42	Z42	X43	Y43	Z43	X44	Y44	Z44	X45	Y45	Z45	X46	Y46	Z46	X47	Y47	Z47	X48	Y48	Z48	X49	Y49	Z49	X50	Y50	Z50	X51	Y51	Z51	X52	Y52	Z52	X53	Y53	Z53	X54	Y54	Z54	X55	Y55	Z55	X56	Y56	Z56	X57	Y57	Z57	X58	Y58	Z58	X59	Y59	Z59

879	4.395	262.03	1584.2	10.384	262.9	1580.8	108.33	180.55	780.19	347.49	135.99	828.98	367.33	145.2	1381.3	-134.73	125.72	1371	224.3	99.469	1222.9	306.06	213.36	639.87	188.11	168.32	499.25	-190.25	140.31	937.31	343.74	-71.63	81.093	-190.72	232.58	965.11	194.39	195.46	570.68	-199.53	140.65	1237.3	-219.43	101.63	1092.1	-262.78	-31.401	61.394	-118.15	67.142	283.7	-116.72	157.72	639.94	210.98	-2.6777	43.052	-134.81	92.541	1577.5	117.56	153.07	461.19	177.35	4.6326	224.36	-115.71	190.47	657.56	-213.64	244.57	663.44	-186.81	274.33	1237.2	64.298	209.6	1349.6	49.372	215.34	987.38	-154.21	152.41	554.29	193.42	189.02	741.37	-227.51	213.42	875.49	-313.15	48.472	1419.4	56.302	194.04	992.16	-281.24	-6.1646	1307.4	140.75	272.13	34.711	70.259	174.41	719.9	227.89	110.24	1570.9	-16.785	263.24	27.248	163.01	84.982	26.962	114.87	-19.715	988.86	-70.398	264.32	842.99	-306.11	316.29	32.336	76	182.01	273.05	158.09	139.68	65.462	156.67	-24.724	984.7	63.891	184.38	183.19	99.524	253.38	888.23	-251.07	189.04	267.68	96.909	206.1	352.94	92.393	135.28	335.97	-118.37	-109.24	195.45	-154.05	154.74	72.851	70.643	62.853	1057.7	337.49	172.69	838.16	303.35	26.659	1043.3	253.45	0.75171	1090.3	16.887	48.585	304.52	-171.13	-76.075	175.46	-78.461	-159.62	195.05	-94.187	89.315	1052.4	-164.3
880	4.4	266.73	1584.6	10.856	267.56	1581.3	108.79	187.91	781.34	348.45	143.06	829.85	368.29	149.9	1381.4	-134.47	130.85	1371.3	224.69	104.92	1223.3	306.64	215.77	639.5	188.28	175.86	500.19	-190.18	146.75	938.16	344.52	-58.516	80.893	-191.98	236.43	964.24	194.78	202.17	571.7	-199.76	144.54	1237.3	-219.06	104.6	1092.4	-262.4	-18.002	61.16	-119.55	77.452	283.71	-117.51	160.14	639.9	211.32	11.073	43.161	-136.31	97.209	1577.5	117.96	154.6	461.14	177.45	15.383	223.84	-116.54	196.47	658.56	-213.8	250.62	664.88	-187.11	279.11	1237	64.397	214.38	1349.7	49.77	219.1	987.04	-154.25	154.48	554.23	193.57	194.22	742.44	-227.53	212.67	874.3	-314.08	53.334	1419.7	56.68	195.36	991.2	-281.86	-1.3327	1307.8	141.49	272.18	34.699	70.254	177.17	719.78	228.18	114.98	1570.9	-16.375	263.22	27.239	163.02	84.963	27.001	114.77	-15.814	989.33	-69.824	263.28	841.29	-307.81	316.42	32.29	76.084	182.79	272.96	158.09	139.72	65.488	156.58	-20.626	985.29	64.483	184.83	183.11	99.482	253.51	886.4	-252.45	189.71	267.59	96.898	207.05	352.82	92.364	144.83	336.69	-118.93	-98.469	193.88	-154.25	154.78	72.814	70.554	68.723	1058.1	338.47	179.52	839.18	304.2	32.165	1043.6	254.61	5.0929	1090.8	17.408	58.08	304.88	-171.46	-64.907	173.89	-78.827	-149.11	191.98	-94.368	92.054	1052.5	-163.96
881	4.405	271.42	1585	11.287	272.22	1581.7	109.21	195.24	782.49	349.42	150.11	830.71	369.25	154.62	1381.4	-134.22	136	1371.7	225.05	110.34	1223.7	307.18	218.18	639.11	188.46	183.35	501.08	-190.08	153.17	939	345.28	-45.087	80.433	-193.09	240.23	963.32	195.14	208.8	572.68	-199.97	148.44	1237.4	-218.72	107.6	1092.7	-262.05	-4.3226	60.814	-120.74	87.8	283.59	-118.23	162.56	639.83	211.65	25.125	43.182	-137.56	101.87	1577.6	118.31	156.16	461.09	177.53	26.256	223.17	-117.29	202.39	659.5	-213.96	256.61	666.26	-187.43	283.9	1236.7	64.429	219.16	1349.8	50.144	222.86	986.66	-154.3	156.56	554.15	193.7	199.35	743.45	-227.59	211.88	873.13	-315.02	58.189	1420	57.03	196.67	990.24	-282.49	3.4909	1308.3	142.2	272.22	34.685	70.244	179.91	719.64	228.5	119.72	1570.8	-16.004	263.2	27.232	163.03	84.945	27.043	114.66	-11.896	989.81	-69.295	262.17	839.59	-309.52	316.56	32.242	76.165	183.59	272.86	158.09	139.76	65.516	156.49	-16.552	985.88	65.02	185.31	183.03	99.454	253.57	884.57	-253.85	190.43	267.49	96.896	208.05	352.69	92.348	154.4	337.37	-119.46	-87.479	192	-154.46	154.83	72.772	70.462	74.576	1058.5	339.42	186.34	840.19	305.05	37.675	1043.8	255.73	9.4186	1091.3	17.907	67.656	305.06	-171.76	-53.559	172.11	-79.171	-138.38	188.6	-94.623	94.785	1052.7	-163.66
882	4.41	276.11	1585.4	11.675	276.88	1582.2	109.59	202.56	783.64	350.38	157.13	831.58	370.19	159.36	1381.4	-133.97	141.16	1372	225.36	115.72	1224.1	307.68	220.6	638.71	188.67	190.82	501.92	-189.97	159.57	939.83	346.02	-31.363	79.726	-194.05	243.99	962.38	195.49	215.34	573.61	-200.15	152.33	1237.4	-218.41	110.62	1093	-261.72	9.6294	60.359	-121.77	98.183	283.36	-118.85	164.97	639.72	211.97	39.464	43.12	-138.6	106.53	1577.6	118.63	157.74	461.03	177.6	37.248	222.34	-117.97	208.25	660.39	-214.11	262.53	667.58	-187.75	288.68	1236.4	64.392	223.93	1349.9	50.495	226.62	986.24	-154.36	158.65	554.06	193.81	204.44	744.39	-227.67	211.04	872	-315.98	63.036	1420.3	57.357	197.97	989.29	-283.13	8.309	1308.7	142.9	272.27	34.671	70.231	182.64	719.47	228.84	124.45	1570.7	-15.672	263.19	27.226	163.04	84.928	27.087	114.55	-7.9592	990.29	-68.815	260.99	837.91	-311.22	316.7	32.193	76.244	184.4	272.76	158.11	139.81	65.545	156.4	-12.499	986.45	65.501	185.81	182.94	99.44	253.56	882.74	-255.26	191.21	267.37	96.907	209.11	352.54	92.351	163.99	337.99	-119.95	-76.275	189.83	-154.68	154.89	72.729	70.369	80.408	1058.9	340.33	193.14	841.18	305.89	43.187	1044	256.8	13.729	1091.7	18.385	77.318	305.06	-172.03	-42.026	170.13	-79.489	-127.43	184.93	-94.931	97.52	1052.8	-163.4
883	4.415	280.8	1585.7	12.024	281.53	1582.6	109.94	209.85	784.79	351.33	164.12	832.44	371.12	164.13	1381.4	-133.71	146.34	1372.3	225.64	121.07	1224.4	308.14	223.03	638.29	188.9	198.25	502.7	-189.82	165.94	940.65	346.74	-17.364	78.791	-194.88	247.72	961.43	195.82	221.82	574.49	-200.29	156.23	1237.4	-218.11	113.66	1093.3	-261.42	23.845	59.799	-122.64	108.6	283.02	-119.37	167.37	639.59	212.28	54.079	42.98	-139.46	111.19	1577.6	118.9	159.34	460.97	177.68	48.357	221.37	-118.56	214.04	661.22	-214.25	268.39	668.83	-188.08	293.47	1236	64.286	228.7	1349.9	50.822	230.39	985.79	-154.43	160.76	553.96	193.9	209.46	745.25	-227.78	210.17	870.91	-316.95	67.874	1420.5	57.665	199.25	988.35	-283.77	13.124	1309.1	143.57	272.32	34.655	70.214	185.35	719.29	229.19	129.19	1570.6	-15.379	263.18	27.221	163.04	84.912	27.133	114.44	-4.0047	990.78	-68.384	259.73	836.24	-312.92	316.85	32.143	76.319	185.22	272.65	158.13	139.86	65.574	156.32	-8.4665	987.01	65.926	186.33	182.83	99.442	253.49	880.93	-256.68	192.03	267.25	96.937	210.23	352.38	92.381	173.6	338.54	-120.38	-64.857	187.37	-154.9	154.94	72.685	70.275	86.216	1059.3	341.22	199.92	842.16	306.73	48.701	1044.1	257.82	18.024	1092.2	18.841	87.068	304.87	-172.25	-30.304	167.96	-79.776	-116.25	180.98	-95.274	100.27	1052.9	-163.17
884	4.42	285.48	1585.9	12.333	286.18	1583	110.24	217.12	785.94	352.28	171.09	833.29	372.04	168.91	1381.3	-133.46	151.54	1372.6	225.89	126.38	1224.8	308.57	225.48	637.86	189.15	205.66	503.43	-189.66	172.29	941.46	347.44	-3.1044	77.642	-195.58	251.41	960.48	196.12	228.25	575.32	-200.38	160.12	1237.4	-217.84	116.7	1093.6	-261.14	38.317	59.141	-123.36	119.05	282.57	-119.78	169.78	639.44	212.57	68.957	42.771	-140.15	115.84	1577.5	119.14	160.97	460.9	177.75	59.58	220.25	-119.04	219.78	661.98	-214.37	274.18	670.03	-188.39	298.25	1235.5	64.113	233.46	1349.9	51.122	234.17	985.32	-154.49	162.87	553.84	193.96	214.43	746.02	-227.91	209.26	869.86	-317.94	72.705	1420.8	57.959	200.51	987.42	-284.42	17.939	1309.5	144.23	272.37	34.638	70.195	188.05	719.08	229.56	133.92	1570.5	-15.124	263.17	27.217	163.04	84.897	27.179	114.33	-0.032562	991.28	-68.003	258.4	834.61	-314.62	316.99	32.092	76.391	186.06	272.54	158.18	139.92	65.604	156.24	-4.4526	987.56	66.293	186.87	182.72	99.461	253.36	879.14	-258.11	192.89	267.12	96.988	211.42	352.19	92.443	183.22	339.03	-120.75	-53.226	184.64	-155.1	155	72.642	70.183	91.996	1059.7	342.07	206.69	843.12	307.55	54.214	1044.3	258.8	22.304	1092.5	19.274	96.909	304.49	-172.42	-18.39	165.59	-80.029	-104.81	176.76	-95.631	103.05	1053	-162.96
885	4.425	290.16	1586.2	12.604	290.82	1583.4	110.51	224.37	787.07	353.22	178.03	834.14	372.94	173.72	1381.2	-133.2	156.76	1372.9	226.1	131.66	1225.1	308.97	227.94	637.41	189.42	213.04	504.11	-189.47	178.62	942.25	348.13	11.402	76.299	-196.17	255.07	959.55	196.41	234.63	576.09	-200.43	164.02	1237.5	-217.58	119.73	1093.9	-260.88	53.035	58.39	-123.97	129.54	282.01	-120.09	172.18	639.26	212.84	84.088	42.5	-140.7	120.48	1577.5	119.33	162.64	460.82	177.83	70.918	218.98	-119.4	225.46	662.68	-214.46	279.91	671.18	-188.7	303.02	1235	63.872	238.23	1349.8	51.394	237.97	984.83	-154.55	165	553.72	194.01	219.35	746.71	-228.06	208.31	868.87	-318.93	77.531	1421	58.24	201.76	986.51	-285.07	22.757	1309.9	144.87	272.41	34.619	70.175	190.75	718.86	229.93	138.66	1570.3	-14.906	263.16	27.213	163.05	84.882	27.227	114.23	3.9566	991.77	-67.674	257.01	833.01	-316.29	317.14	32.041	76.46	186.93	272.42	158.24	139.98	65.634	156.16	-0.45635	988.09	66.604	187.43	182.6	99.495	253.17	877.38	-259.55	193.8	266.98	97.065	212.67	351.99	92.538	192.85	339.46	-121.04	-41.378	181.65	-155.3	155.07	72.603	70.094	97.744	1060	342.89	213.43	844.06	308.37	59.725	1044.4	259.73	26.571	1092.9	19.682	106.85	303.92	-172.53	-6.2831	163.04	-80.245	-93.116	172.28	-95.989	105.86	1053.1	-162.77
